:SAMPLES-PER-SECOND 30
:FRAME-RANGE 1-1086
:FULLY-SPECIFIED
:DEGREES
883
root  -7.85393 38.8244 -104.109 -16.7516 -84.4777 16.8627
RightUpLeg  -21.7282 -0.0600723 -3.41965
RightLeg  2.19773 4.4478 -0.848886
RightFoot  -4.45408 -0.482847 7.50812
RightToes  1.21801e-010 1.2921e-014 -6.02303e-014
Spine  -5.46659 -7.89618 -9.89764
Spine1  8.22505 -8.52784 3.45147
HEad  21.1029 -51.2528 0.115986
LeftShoulder1  1.51465 -2.99787 -17.6521
LeftArm  12.6644 -9.03068 -49.0902
LeftForeArm  7.7702 -16.2597 -8.32361
LeftHand  -0.0812875 3.28704 3.65717
RightShoulder  0.377877 -2.18246 27.1056
RightArm  -30.4149 -12.4535 45.4388
RightForeArm  70.489 -4.91324 1.29612
RightHand  0.350071 -8.41555 -14.318
LeftUpLeg  4.86071 1.81475 -5.34953
LeftLeg  15.4438 3.36123 2.91032
LeftFoot  -18.8212 0.266833 2.35293
LeftToes  3.79492e-011 -8.60219e-011 1.56273e-011
884
root  -9.28521 38.5608 -103.973 -14.5108 -84.0399 14.8424
RightUpLeg  -21.3898 -0.516676 -3.22121
RightLeg  -1.08909 5.25484 -0.691888
RightFoot  -7.94891 -0.341895 9.69339
RightToes  1.21801e-010 1.2921e-014 -6.02303e-014
Spine  -5.78972 -8.15636 -9.91236
Spine1  8.28271 -8.8749 3.89197
HEad  23.2301 -53.2475 1.37937
LeftShoulder1  1.51757 -3.04972 -17.4896
LeftArm  13.1332 -9.62449 -49.9586
LeftForeArm  7.42048 -16.7791 -7.98412
LeftHand  -0.0849124 3.23674 3.78601
RightShoulder  0.271161 -2.50749 27.178
RightArm  -29.4686 -13.9085 44.4804
RightForeArm  69.7001 -5.04685 1.90485
RightHand  0.339319 -8.36685 -14.1418
LeftUpLeg  6.70216 1.84565 -5.13813
LeftLeg  16.2468 3.14792 2.88009
LeftFoot  -20.6463 0.275428 1.86098
LeftToes  3.79492e-011 -8.60219e-011 1.56273e-011
885
root  -10.7329 38.3338 -103.875 -11.7258 -84.0898 12.0685
RightUpLeg  -22.1173 -0.553346 -2.68155
RightLeg  2.75858 3.99722 0.222734
RightFoot  -8.15715 -0.286243 8.28546
RightToes  1.21801e-010 1.2921e-014 -6.02303e-014
Spine  -5.88809 -8.28449 -9.71352
Spine1  8.60696 -9.17019 4.15684
HEad  24.7641 -54.9825 3.19168
LeftShoulder1  1.52066 -3.10835 -17.3051
LeftArm  13.4735 -9.57508 -50.5443
LeftForeArm  7.23282 -17.1082 -7.76855
LeftHand  -0.091361 3.25044 3.63845
RightShoulder  0.229458 -2.64105 27.5832
RightArm  -28.7379 -14.2318 43.4855
RightForeArm  69.4089 -5.12101 2.27829
RightHand  0.306797 -8.24792 -13.4494
LeftUpLeg  8.57934 1.44407 -4.7175
LeftLeg  17.4617 2.9262 2.89824
LeftFoot  -21.7998 0.136697 0.0638829
LeftToes  3.79492e-011 -8.60219e-011 1.56273e-011
886
root  -12.1544 38.415 -103.756 -0.965637 -83.8421 1.44263
RightUpLeg  -21.9414 0.531401 -1.26468
RightLeg  6.16247 0.309036 -0.235587
RightFoot  -2.34635 -0.339467 4.10963
RightToes  1.21801e-010 1.2921e-014 -6.02303e-014
Spine  -6.64333 -8.72068 -8.42946
Spine1  10.0098 -10.0024 4.83773
HEad  26.8419 -56.0984 3.55542
LeftShoulder1  1.54038 -3.16519 -17.4101
LeftArm  13.4131 -8.58635 -50.6818
LeftForeArm  7.56647 -17.0849 -7.77244
LeftHand  -0.0926092 3.07945 3.71357
RightShoulder  0.190561 -2.75922 27.7155
RightArm  -28.7487 -13.5059 42.945
RightForeArm  69.7299 -5.09092 2.17325
RightHand  0.33099 -8.31541 -14.2044
LeftUpLeg  10.6101 -0.39457 -3.84886
LeftLeg  17.5529 3.93527 3.03263
LeftFoot  -20.6359 -0.0755755 -2.45201
LeftToes  3.79492e-011 -8.60219e-011 1.56273e-011
887
root  -13.644 38.5989 -103.633 9.54385 -82.7429 -8.80353
RightUpLeg  -21.0481 1.47152 -0.098561
RightLeg  7.32912 -0.935068 -1.03604
RightFoot  3.03921 -0.636647 5.20716
RightToes  1.21801e-010 1.2921e-014 -6.02303e-014
Spine  -7.13166 -9.26971 -6.95404
Spine1  10.5517 -11.0659 6.05097
HEad  29.9151 -57.2221 2.29626
LeftShoulder1  1.61395 -3.4458 -17.5199
LeftArm  11.9742 -6.7785 -50.9815
LeftForeArm  9.91278 -15.6869 -8.60481
LeftHand  -0.0905953 3.09056 3.87223
RightShoulder  0.0504758 -3.17686 28.0214
RightArm  -28.1976 -12.817 41.9636
RightForeArm  68.9505 -5.15841 2.39571
RightHand  0.339397 -8.29273 -14.4752
LeftUpLeg  11.8581 -3.87953 -2.93755
LeftLeg  18.8039 5.97213 2.92096
LeftFoot  -18.1505 -0.212863 -5.40294
LeftToes  3.79492e-011 -8.60219e-011 1.56273e-011
888
root  -15.1885 38.7086 -103.53 18.2913 -82.4657 -17.2836
RightUpLeg  -20.3596 0.0491424 0.878685
RightLeg  9.5645 -0.0837084 0.197855
RightFoot  4.40549 -0.942163 7.02282
RightToes  1.21801e-010 1.2921e-014 -6.02303e-014
Spine  -7.1976 -9.32592 -5.37993
Spine1  9.96743 -11.4312 7.16423
HEad  33.3079 -58.1883 0.0939702
LeftShoulder1  1.65979 -3.48087 -18.1181
LeftArm  8.09279 -4.67543 -51.4078
LeftForeArm  15.2195 -12.8312 -10.0159
LeftHand  -0.084985 3.22178 3.76699
RightShoulder  0.00633512 -3.30695 28.0764
RightArm  -27.8187 -11.8872 41.0802
RightForeArm  68.1547 -5.21069 2.52584
RightHand  0.323354 -8.29783 -13.8551
LeftUpLeg  11.1733 -3.95392 -1.41668
LeftLeg  23.5327 5.84817 3.12093
LeftFoot  -14.5986 -0.165447 -8.87599
LeftToes  3.79492e-011 -8.60219e-011 1.56273e-011
889
root  -16.6517 38.8076 -103.467 29.4221 -83.0618 -28.0265
RightUpLeg  -19.6447 -1.56269 2.33155
RightLeg  11.6493 2.50543 1.58285
RightFoot  2.88464 -0.721298 5.93273
RightToes  1.21801e-010 1.2921e-014 -6.02303e-014
Spine  -7.66918 -9.08935 -3.77077
Spine1  10.1919 -11.2942 7.73389
HEad  35.3037 -58.4805 -1.00565
LeftShoulder1  1.62269 -3.40263 -17.8278
LeftArm  2.76864 -2.05002 -52.3746
LeftForeArm  20.761 -9.57721 -11.0117
LeftHand  -0.0748849 3.58257 3.75428
RightShoulder  0.0793425 -3.09174 28.0222
RightArm  -28.6268 -9.71047 41.3899
RightForeArm  68.1692 -5.11498 1.9603
RightHand  0.322916 -8.25193 -14.0416
LeftUpLeg  7.99727 -0.336562 1.27293
LeftLeg  31.5255 3.72534 2.81609
LeftFoot  -8.12799 0.393632 -12.2655
LeftToes  3.79492e-011 -8.60219e-011 1.56273e-011
890
root  -17.9961 38.938 -103.418 40.0344 -83.5071 -38.3009
RightUpLeg  -18.3647 -0.878121 3.42092
RightLeg  12.5461 2.92178 1.8435
RightFoot  1.51086 -0.467518 4.23981
RightToes  1.21801e-010 1.2921e-014 -6.02303e-014
Spine  -7.71722 -8.72869 -2.38785
Spine1  10.2871 -11.0129 8.30063
HEad  36.0869 -58.3905 -1.48059
LeftShoulder1  1.61453 -3.39341 -17.7318
LeftArm  -0.806294 0.594181 -52.8491
LeftForeArm  24.304 -6.86467 -11.4967
LeftHand  -0.063656 3.93813 3.626
RightShoulder  0.149327 -2.88221 27.741
RightArm  -29.1753 -7.2086 42.4785
RightForeArm  68.046 -5.05374 1.56992
RightHand  0.325504 -8.34525 -13.7303
LeftUpLeg  3.07841 2.37574 3.22676
LeftLeg  41.0918 2.99732 3.18688
LeftFoot  0.823755 1.48628 -13.9398
LeftToes  3.79492e-011 -8.60219e-011 1.56273e-011
891
root  -19.2193 38.9853 -103.344 48.2227 -83.8659 -46.5101
RightUpLeg  -17.0823 -0.864284 4.06762
RightLeg  14.0318 3.89439 2.20647
RightFoot  -0.710364 -0.298704 3.15667
RightToes  1.21801e-010 1.2921e-014 -6.02303e-014
Spine  -7.31862 -8.38338 -0.916934
Spine1  10.6745 -10.5041 8.03718
HEad  35.6677 -57.9166 -0.781142
LeftShoulder1  1.57717 -3.24624 -17.7
LeftArm  -2.82534 2.66737 -52.7249
LeftForeArm  26.4305 -4.69461 -11.7108
LeftHand  -0.0581976 4.05162 3.39342
RightShoulder  0.194699 -2.75461 28.2324
RightArm  -28.6449 -3.74311 43.3971
RightForeArm  67.5838 -5.10357 1.76126
RightHand  0.295578 -8.10259 -13.6593
LeftUpLeg  -2.27983 4.00615 4.00994
LeftLeg  50.0306 3.54735 4.97376
LeftFoot  11.8938 2.51441 -12.5462
LeftToes  3.79492e-011 -8.60219e-011 1.56273e-011
892
root  -20.4546 39.0361 -103.232 59.2696 -84.7184 -57.8953
RightUpLeg  -15.3239 -1.96381 4.23989
RightLeg  15.4416 6.20025 3.10387
RightFoot  -3.19131 -0.20207 2.53016
RightToes  1.21801e-010 1.2921e-014 -6.02303e-014
Spine  -6.78191 -7.7412 0.520178
Spine1  10.8136 -9.54251 7.12296
HEad  35.4364 -57.2486 -0.643049
LeftShoulder1  1.523 -2.86425 -18.3615
LeftArm  -3.64094 4.2969 -51.9499
LeftForeArm  27.3495 -2.56416 -11.9175
LeftHand  -0.0545736 4.26574 3.57164
RightShoulder  0.313743 -2.41532 28.6341
RightArm  -27.8631 -0.0414585 44.5384
RightForeArm  67.0818 -5.17521 2.07404
RightHand  0.296109 -7.94003 -14.4732
LeftUpLeg  -6.86168 5.55858 3.97986
LeftLeg  56.4765 4.64931 8.02829
LeftFoot  21.3322 3.23189 -11.4519
LeftToes  3.79492e-011 -8.60219e-011 1.56273e-011
893
root  -21.6955 39.1026 -103.13 72.6295 -85.5093 -71.4958
RightUpLeg  -13.4121 -2.29775 4.15442
RightLeg  16.3482 7.92745 3.39717
RightFoot  -5.45214 -0.147084 2.13803
RightToes  1.21801e-010 1.2921e-014 -6.02303e-014
Spine  -6.48163 -7.03046 1.13808
Spine1  10.8487 -8.6279 6.66262
HEad  35.9217 -55.9974 -1.71323
LeftShoulder1  1.46278 -2.51879 -18.8246
LeftArm  -4.87068 6.09472 -51.568
LeftForeArm  28.0675 -0.467218 -11.7013
LeftHand  -0.0475405 4.50266 3.43447
RightShoulder  0.473813 -1.945 28.4726
RightArm  -27.4003 3.52926 46.3356
RightForeArm  67.2049 -5.18224 2.1432
RightHand  0.352872 -8.11302 -15.8798
LeftUpLeg  -10.9734 7.13243 3.5788
LeftLeg  60.7682 4.19109 8.64642
LeftFoot  17.8998 2.29651 -9.21476
LeftToes  3.79492e-011 -8.60219e-011 1.56273e-011
